<mxfile host="Electron" modified="2023-10-05T14:48:07.122Z" agent="Mozilla/5.0 (X11; Linux x86_64) AppleWebKit/537.36 (KHTML, like Gecko) draw.io/21.7.5 Chrome/114.0.5735.289 Electron/25.8.1 Safari/537.36" etag="OUe8SgDMxJ8796TS9DSq" version="21.7.5" type="device">
  <diagram name="Page-1" id="C3P9w4WGBIDJ-o42MPhu">
    <mxGraphModel dx="1114" dy="690" grid="1" gridSize="10" guides="1" tooltips="1" connect="1" arrows="1" fold="1" page="1" pageScale="1" pageWidth="850" pageHeight="1100" math="0" shadow="0">
      <root>
        <mxCell id="0" />
        <mxCell id="1" parent="0" />
        <mxCell id="IVfBlr3fboWIBn2xAxWA-4" value="" style="edgeStyle=orthogonalEdgeStyle;rounded=0;orthogonalLoop=1;jettySize=auto;html=1;" edge="1" parent="1" source="IVfBlr3fboWIBn2xAxWA-1" target="IVfBlr3fboWIBn2xAxWA-3">
          <mxGeometry relative="1" as="geometry" />
        </mxCell>
        <mxCell id="IVfBlr3fboWIBn2xAxWA-1" value="&lt;font style=&quot;font-size: 17px;&quot;&gt;T&lt;/font&gt;" style="rounded=0;whiteSpace=wrap;html=1;" vertex="1" parent="1">
          <mxGeometry x="360" y="10" width="70" height="60" as="geometry" />
        </mxCell>
        <mxCell id="IVfBlr3fboWIBn2xAxWA-2" value="" style="endArrow=classic;html=1;rounded=0;" edge="1" parent="1">
          <mxGeometry width="50" height="50" relative="1" as="geometry">
            <mxPoint x="290" y="39.5" as="sourcePoint" />
            <mxPoint x="360" y="39.5" as="targetPoint" />
          </mxGeometry>
        </mxCell>
        <mxCell id="IVfBlr3fboWIBn2xAxWA-3" value="&lt;font style=&quot;font-size: 16px;&quot;&gt;E&#39;&lt;/font&gt;" style="rounded=0;whiteSpace=wrap;html=1;" vertex="1" parent="1">
          <mxGeometry x="510" y="10" width="70" height="60" as="geometry" />
        </mxCell>
        <mxCell id="IVfBlr3fboWIBn2xAxWA-5" value="&lt;p style=&quot;line-height: 120%;&quot;&gt;&lt;font style=&quot;font-size: 18px;&quot;&gt;E&lt;/font&gt;&lt;/p&gt;" style="text;html=1;align=center;verticalAlign=middle;resizable=0;points=[];autosize=1;strokeColor=none;fillColor=none;" vertex="1" parent="1">
          <mxGeometry x="240" y="15" width="40" height="50" as="geometry" />
        </mxCell>
        <mxCell id="IVfBlr3fboWIBn2xAxWA-6" value="&lt;div style=&quot;color: rgb(248, 248, 242); background-color: rgb(40, 42, 54); font-family: &amp;quot;Fira Code&amp;quot;, &amp;quot;Droid Sans Mono&amp;quot;, &amp;quot;monospace&amp;quot;, monospace; font-size: 14px; line-height: 19px;&quot;&gt;&lt;div&gt;Regras Sintaticas:&lt;/div&gt;&lt;div&gt;&lt;br&gt;&lt;/div&gt;&lt;div&gt;1a. E -&amp;gt; T E&#39;&lt;/div&gt;&lt;div&gt;1b. E&#39; -&amp;gt; OP T E&#39; | &amp;amp;&lt;/div&gt;&lt;div&gt;2.  T -&amp;gt; id | number&lt;/div&gt;&lt;div&gt;3. OP -&amp;gt; + | - | * | /&lt;/div&gt;&lt;/div&gt;" style="text;html=1;align=left;verticalAlign=middle;resizable=0;points=[];autosize=1;strokeColor=none;fillColor=none;" vertex="1" parent="1">
          <mxGeometry x="10" y="10" width="210" height="130" as="geometry" />
        </mxCell>
        <mxCell id="IVfBlr3fboWIBn2xAxWA-7" value="" style="edgeStyle=orthogonalEdgeStyle;rounded=0;orthogonalLoop=1;jettySize=auto;html=1;" edge="1" parent="1" source="IVfBlr3fboWIBn2xAxWA-8" target="IVfBlr3fboWIBn2xAxWA-10">
          <mxGeometry relative="1" as="geometry" />
        </mxCell>
        <mxCell id="IVfBlr3fboWIBn2xAxWA-8" value="&lt;font style=&quot;font-size: 16px;&quot;&gt;OP&lt;/font&gt;" style="rounded=0;whiteSpace=wrap;html=1;" vertex="1" parent="1">
          <mxGeometry x="350" y="130" width="70" height="60" as="geometry" />
        </mxCell>
        <mxCell id="IVfBlr3fboWIBn2xAxWA-9" value="" style="endArrow=classic;html=1;rounded=0;" edge="1" parent="1">
          <mxGeometry width="50" height="50" relative="1" as="geometry">
            <mxPoint x="280" y="159.5" as="sourcePoint" />
            <mxPoint x="350" y="159.5" as="targetPoint" />
          </mxGeometry>
        </mxCell>
        <mxCell id="IVfBlr3fboWIBn2xAxWA-16" value="" style="edgeStyle=orthogonalEdgeStyle;rounded=0;orthogonalLoop=1;jettySize=auto;html=1;" edge="1" parent="1" source="IVfBlr3fboWIBn2xAxWA-10" target="IVfBlr3fboWIBn2xAxWA-15">
          <mxGeometry relative="1" as="geometry" />
        </mxCell>
        <mxCell id="IVfBlr3fboWIBn2xAxWA-10" value="&lt;font style=&quot;font-size: 16px;&quot;&gt;T&lt;/font&gt;" style="rounded=0;whiteSpace=wrap;html=1;" vertex="1" parent="1">
          <mxGeometry x="450" y="130" width="70" height="60" as="geometry" />
        </mxCell>
        <mxCell id="IVfBlr3fboWIBn2xAxWA-11" value="&lt;p style=&quot;line-height: 120%;&quot;&gt;&lt;font style=&quot;font-size: 18px;&quot;&gt;E&#39;&lt;/font&gt;&lt;/p&gt;" style="text;html=1;align=center;verticalAlign=middle;resizable=0;points=[];autosize=1;strokeColor=none;fillColor=none;" vertex="1" parent="1">
          <mxGeometry x="240" y="135" width="40" height="50" as="geometry" />
        </mxCell>
        <mxCell id="IVfBlr3fboWIBn2xAxWA-12" value="" style="endArrow=none;html=1;rounded=0;" edge="1" parent="1">
          <mxGeometry width="50" height="50" relative="1" as="geometry">
            <mxPoint x="310" y="160" as="sourcePoint" />
            <mxPoint x="310" y="230" as="targetPoint" />
          </mxGeometry>
        </mxCell>
        <mxCell id="IVfBlr3fboWIBn2xAxWA-19" value="" style="edgeStyle=orthogonalEdgeStyle;rounded=0;orthogonalLoop=1;jettySize=auto;html=1;" edge="1" parent="1" source="IVfBlr3fboWIBn2xAxWA-15">
          <mxGeometry relative="1" as="geometry">
            <mxPoint x="700" y="160" as="targetPoint" />
          </mxGeometry>
        </mxCell>
        <mxCell id="IVfBlr3fboWIBn2xAxWA-15" value="&lt;font style=&quot;font-size: 16px;&quot;&gt;E&#39;&lt;/font&gt;" style="rounded=0;whiteSpace=wrap;html=1;" vertex="1" parent="1">
          <mxGeometry x="550" y="130" width="70" height="60" as="geometry" />
        </mxCell>
        <mxCell id="IVfBlr3fboWIBn2xAxWA-17" value="" style="endArrow=none;html=1;rounded=0;" edge="1" parent="1">
          <mxGeometry width="50" height="50" relative="1" as="geometry">
            <mxPoint x="310" y="230" as="sourcePoint" />
            <mxPoint x="640" y="230" as="targetPoint" />
          </mxGeometry>
        </mxCell>
        <mxCell id="IVfBlr3fboWIBn2xAxWA-20" value="" style="endArrow=classic;html=1;rounded=0;" edge="1" parent="1">
          <mxGeometry width="50" height="50" relative="1" as="geometry">
            <mxPoint x="640" y="230" as="sourcePoint" />
            <mxPoint x="640" y="160" as="targetPoint" />
          </mxGeometry>
        </mxCell>
        <mxCell id="IVfBlr3fboWIBn2xAxWA-23" value="" style="endArrow=classic;html=1;rounded=0;" edge="1" parent="1" source="IVfBlr3fboWIBn2xAxWA-25">
          <mxGeometry width="50" height="50" relative="1" as="geometry">
            <mxPoint x="310" y="310" as="sourcePoint" />
            <mxPoint x="380" y="310" as="targetPoint" />
            <Array as="points">
              <mxPoint x="340" y="310.41999999999996" />
            </Array>
          </mxGeometry>
        </mxCell>
        <mxCell id="IVfBlr3fboWIBn2xAxWA-25" value="&lt;p style=&quot;line-height: 120%;&quot;&gt;&lt;span style=&quot;font-size: 18px;&quot;&gt;T&lt;/span&gt;&lt;/p&gt;" style="text;html=1;align=center;verticalAlign=middle;resizable=0;points=[];autosize=1;strokeColor=none;fillColor=none;" vertex="1" parent="1">
          <mxGeometry x="245" y="285" width="30" height="50" as="geometry" />
        </mxCell>
        <mxCell id="IVfBlr3fboWIBn2xAxWA-27" value="&lt;font style=&quot;font-size: 13px;&quot;&gt;id&lt;/font&gt;" style="ellipse;whiteSpace=wrap;html=1;aspect=fixed;" vertex="1" parent="1">
          <mxGeometry x="380" y="285" width="50" height="50" as="geometry" />
        </mxCell>
        <mxCell id="IVfBlr3fboWIBn2xAxWA-28" value="" style="endArrow=classic;html=1;rounded=0;" edge="1" parent="1">
          <mxGeometry width="50" height="50" relative="1" as="geometry">
            <mxPoint x="310" y="370" as="sourcePoint" />
            <mxPoint x="380" y="370" as="targetPoint" />
          </mxGeometry>
        </mxCell>
        <mxCell id="IVfBlr3fboWIBn2xAxWA-31" value="" style="endArrow=none;html=1;rounded=0;" edge="1" parent="1">
          <mxGeometry width="50" height="50" relative="1" as="geometry">
            <mxPoint x="310" y="310" as="sourcePoint" />
            <mxPoint x="310" y="370" as="targetPoint" />
          </mxGeometry>
        </mxCell>
        <mxCell id="IVfBlr3fboWIBn2xAxWA-32" value="&lt;font style=&quot;font-size: 13px;&quot;&gt;number&lt;/font&gt;" style="ellipse;whiteSpace=wrap;html=1;aspect=fixed;" vertex="1" parent="1">
          <mxGeometry x="380" y="345" width="50" height="50" as="geometry" />
        </mxCell>
        <mxCell id="IVfBlr3fboWIBn2xAxWA-34" value="" style="endArrow=classic;html=1;rounded=0;" edge="1" parent="1" source="IVfBlr3fboWIBn2xAxWA-35">
          <mxGeometry width="50" height="50" relative="1" as="geometry">
            <mxPoint x="575" y="305" as="sourcePoint" />
            <mxPoint x="645" y="305" as="targetPoint" />
            <Array as="points">
              <mxPoint x="605" y="305.41999999999996" />
            </Array>
          </mxGeometry>
        </mxCell>
        <mxCell id="IVfBlr3fboWIBn2xAxWA-35" value="&lt;p style=&quot;line-height: 120%;&quot;&gt;&lt;span style=&quot;font-size: 18px;&quot;&gt;OP&lt;/span&gt;&lt;/p&gt;" style="text;html=1;align=center;verticalAlign=middle;resizable=0;points=[];autosize=1;strokeColor=none;fillColor=none;" vertex="1" parent="1">
          <mxGeometry x="500" y="280" width="50" height="50" as="geometry" />
        </mxCell>
        <mxCell id="IVfBlr3fboWIBn2xAxWA-36" value="+" style="ellipse;whiteSpace=wrap;html=1;aspect=fixed;fontSize=16;" vertex="1" parent="1">
          <mxGeometry x="645" y="280" width="50" height="50" as="geometry" />
        </mxCell>
        <mxCell id="IVfBlr3fboWIBn2xAxWA-37" value="" style="endArrow=classic;html=1;rounded=0;" edge="1" parent="1">
          <mxGeometry width="50" height="50" relative="1" as="geometry">
            <mxPoint x="575" y="365" as="sourcePoint" />
            <mxPoint x="645" y="365" as="targetPoint" />
          </mxGeometry>
        </mxCell>
        <mxCell id="IVfBlr3fboWIBn2xAxWA-38" value="" style="endArrow=none;html=1;rounded=0;" edge="1" parent="1">
          <mxGeometry width="50" height="50" relative="1" as="geometry">
            <mxPoint x="575" y="305" as="sourcePoint" />
            <mxPoint x="575" y="490" as="targetPoint" />
          </mxGeometry>
        </mxCell>
        <mxCell id="IVfBlr3fboWIBn2xAxWA-39" value="&lt;font style=&quot;font-size: 16px;&quot;&gt;-&lt;/font&gt;" style="ellipse;whiteSpace=wrap;html=1;aspect=fixed;" vertex="1" parent="1">
          <mxGeometry x="645" y="340" width="50" height="50" as="geometry" />
        </mxCell>
        <mxCell id="IVfBlr3fboWIBn2xAxWA-40" value="" style="endArrow=classic;html=1;rounded=0;" edge="1" parent="1">
          <mxGeometry width="50" height="50" relative="1" as="geometry">
            <mxPoint x="575" y="424.58000000000004" as="sourcePoint" />
            <mxPoint x="645" y="424.58000000000004" as="targetPoint" />
          </mxGeometry>
        </mxCell>
        <mxCell id="IVfBlr3fboWIBn2xAxWA-41" value="&lt;font style=&quot;font-size: 16px;&quot;&gt;*&lt;/font&gt;" style="ellipse;whiteSpace=wrap;html=1;aspect=fixed;" vertex="1" parent="1">
          <mxGeometry x="645" y="400" width="50" height="50" as="geometry" />
        </mxCell>
        <mxCell id="IVfBlr3fboWIBn2xAxWA-43" value="" style="endArrow=classic;html=1;rounded=0;" edge="1" parent="1">
          <mxGeometry width="50" height="50" relative="1" as="geometry">
            <mxPoint x="575" y="490" as="sourcePoint" />
            <mxPoint x="645" y="490" as="targetPoint" />
          </mxGeometry>
        </mxCell>
        <mxCell id="IVfBlr3fboWIBn2xAxWA-44" value="&lt;font style=&quot;font-size: 16px;&quot;&gt;/&lt;/font&gt;" style="ellipse;whiteSpace=wrap;html=1;aspect=fixed;" vertex="1" parent="1">
          <mxGeometry x="645" y="460" width="50" height="50" as="geometry" />
        </mxCell>
      </root>
    </mxGraphModel>
  </diagram>
</mxfile>
